{"title":"Legend 2015 DVDScr XVID AC3 HQ Hive-CM8","uid":13057415,"size":1852717664,"categoryP":"video","categoryS":"movies","magnet":"?xt=urn:btih:75ca6437be88d6bd04849a950cd2ae91a8a90e17&amp;dn=Legend+2015+DVDScr+XVID+AC3+HQ+Hive-CM8+&amp;tr=udp%3A%2F%2Ftracker.leechers-paradise.org%3A6969&amp;tr=udp%3A%2F%2Fzer0day.ch%3A1337&amp;tr=udp%3A%2F%2Fopen.demonii.com%3A1337&amp;tr=udp%3A%2F%2Ftracker.coppersurfer.tk%3A6969&amp;tr=udp%3A%2F%2Fexodus.desync.com%3A6969","seeders":1,"leechers":0,"uploader":"makintos13","files":3,"time":1450669360,"description":"screens:\r\n \nhttp://imgmak.com/KkA \nhttp://imgmak.com/KkD \nhttp://imgmak.com/Kkf \nhttp://imgmak.com/KkE \nhttp://imgmak.com/Kkh\r\n\r\nLegend 2015 DVDScr XVID AC3 HQ Hive-CM8\r\n\r\nThx Hive\r\n\r\nCM8 Doing It Right The First Time\r\n\r\nSource: DVD-Screener Big Thanks M8\r\n\r\nNotes:\r\n\r\nDVDScreener 3 of 40\r\nwill do them all one after each other, 3rd hot title\r\n\r\nEncode:\r\n\r\nQuality was perfect on this\r\n\r\ngot very nice\r\nenjoy\r\n\r\nVideo: 720x304 @bitrate 1600 2pass\r\nAudio: English AC3 2.0 Stereo\r\nSample: yes included \nhttp://www.imdb.com/title/tt3569230/\r\n\r\nGeneral\r\nComplete name: Legend.2015.DVDScr.XVID.AC3.HQ.Hive-CM8.avi\r\nFormat: AVI\r\nFormat/Info: Audio Video Interleave\r\nFile size: 1.72 GiB\r\nDuration: 2h 11mn\r\nOverall bit rate: 1 865 Kbps\r\nWriting application: Nandub v1.0rc2\r\nWriting library: Nandub build 1853/release\r\n\r\nVideo\r\nID: 0\r\nFormat: MPEG-4 Visual\r\nFormat profile: Advanced   \r\nFormat settings, BVOP: 2\r\nFormat settings, QPel: Yes\r\nFormat settings, GMC: No warppoints\r\nFormat settings, Matrix: Default (H.263)\r\nMuxing mode: Packed bitstream\r\nCodec ID: XVID\r\nCodec ID/Hint: XviD\r\nDuration: 2h 11mn\r\nBit rate: 1 597 Kbps\r\nWidth: 720 pixels\r\nHeight: 304 pixels\r\nDisplay aspect ratio: 2.35:1\r\nFrame rate: 29.970 (30000/1001) fps\r\nColor space: YUV\r\nChroma subsampling: 4:2:0\r\nBit depth: 8 bits\r\nScan type: Progressive\r\nCompression mode: Lossy\r\nBits/(Pixel*Frame): 0.243\r\nStream size: 1.47 GiB (86%)\r\nWriting library: XviD 1.2.1 (UTC 2008-12-04)\r\n\r\nAudio\r\nID: 1\r\nFormat: AC-3\r\nFormat/Info: Audio Coding 3\r\nMode extension: CM (complete main)\r\nFormat settings, Endianness: Big\r\nCodec ID: 2000\r\nDuration: 2h 11mn\r\nBit rate mode: Constant\r\nBit rate: 256 Kbps\r\nChannel(s): 2 channels\r\nChannel positions: Front: L R\r\nSampling rate: 48.0 KHz\r\nFrame rate: 31.250 fps (1536 spf)\r\nCompression mode: Lossy\r\nStream size: 241 MiB (14%)\r\nAlignment: Split accross interleaves\r\nInterleave, duration: 33 ms (1.00 video frame)\r\nInterleave, preload duration: 500 ms","torrent":{"xt":"urn:btih:75ca6437be88d6bd04849a950cd2ae91a8a90e17","amp;dn":"Legend+2015+DVDScr+XVID+AC3+HQ+Hive-CM8+","amp;tr":["udp%3A%2F%2Ftracker.leechers-paradise.org%3A6969","udp%3A%2F%2Fzer0day.ch%3A1337","udp%3A%2F%2Fopen.demonii.com%3A1337","udp%3A%2F%2Ftracker.coppersurfer.tk%3A6969","udp%3A%2F%2Fexodus.desync.com%3A6969"],"infoHash":"75ca6437be88d6bd04849a950cd2ae91a8a90e17","infoHashBuffer":{"type":"Buffer","data":[117,202,100,55,190,136,214,189,4,132,154,149,12,210,174,145,168,169,14,23]},"announce":[],"urlList":[]}}